<?xml version="1.0" standalone="no"?>
<!DOCTYPE svg PUBLIC "-//W3C//DTD SVG 20010904//EN"
 "http://www.w3.org/TR/2001/REC-SVG-20010904/DTD/svg10.dtd">
<svg version="1.0" xmlns="http://www.w3.org/2000/svg"
 width="500.000000pt" height="500.000000pt" viewBox="0 0 500.000000 500.000000"
 preserveAspectRatio="xMidYMid meet">

<g transform="translate(0.000000,500.000000) scale(0.100000,-0.100000)"
fill="#000000" stroke="none">
<path d="M637 2803 c-4 -3 -7 -19 -7 -34 0 -25 -4 -28 -37 -31 -36 -3 -38 -5
-43 -43 -5 -38 -7 -40 -42 -43 -36 -3 -38 -5 -38 -36 0 -29 -4 -34 -30 -40
-17 -3 -33 -13 -36 -21 -8 -20 23 -55 48 -55 14 0 18 -8 18 -34 0 -33 2 -35
38 -38 35 -3 37 -5 40 -40 3 -35 5 -37 40 -40 35 -3 37 -5 40 -40 3 -36 5 -38
38 -38 33 0 34 -1 34 -40 l0 -40 40 0 40 0 0 -40 0 -40 40 0 40 0 0 -40 0 -40
40 0 40 0 0 -40 c0 -39 1 -40 34 -40 33 0 35 -2 38 -37 3 -36 5 -38 40 -41 33
-3 37 -6 40 -35 3 -29 6 -32 41 -35 36 -3 37 -4 37 -43 0 -39 0 -39 39 -39
l38 0 7 -72 c7 -74 15 -88 53 -88 16 0 22 -7 25 -27 2 -22 10 -29 41 -36 35
-8 37 -11 37 -48 0 -37 1 -39 33 -39 28 0 34 -4 42 -32 8 -26 17 -34 40 -38
24 -4 32 -13 41 -40 9 -26 19 -36 43 -42 27 -8 31 -13 31 -42 0 -36 12 -46 56
-46 21 0 24 -5 24 -35 0 -30 4 -35 28 -41 48 -10 53 -14 51 -31 -3 -36 2 -42
39 -45 35 -3 37 -5 37 -38 l0 -35 233 -3 232 -2 0 40 0 40 40 0 c39 0 40 1 40
35 0 30 3 35 24 35 43 0 56 10 56 45 0 36 -13 46 -53 38 -26 -5 -27 -3 -27 36
l0 41 -40 0 -40 0 0 40 0 40 -40 0 c-39 0 -40 1 -40 35 0 33 -2 35 -35 35 -33
0 -35 2 -35 35 0 38 -20 55 -64 55 -22 0 -26 4 -26 30 0 25 -4 30 -35 36 -33
6 -35 9 -35 45 0 39 0 39 -39 39 -39 0 -40 1 -43 38 -3 35 -5 37 -40 40 -37 3
-38 4 -38 43 0 39 0 39 -40 39 -39 0 -40 1 -40 34 l0 34 -75 7 -75 7 0 39 c0
39 0 39 -40 39 -39 0 -40 1 -40 35 0 34 -1 35 -40 35 l-40 0 0 40 c0 39 -1 40
-35 40 -34 0 -35 1 -35 40 l0 40 -40 0 -40 0 0 40 0 40 -40 0 c-39 0 -40 1
-40 35 0 34 -1 35 -40 35 -40 0 -40 0 -40 39 0 39 -1 40 -37 43 -36 3 -38 5
-41 41 -3 36 -4 37 -43 37 -39 0 -39 0 -39 40 0 39 -1 40 -35 40 -33 0 -35 2
-35 34 0 34 -1 35 -42 38 -43 3 -43 3 -46 46 -3 41 -4 42 -38 42 -28 0 -34 4
-34 21 0 35 -24 49 -83 49 -29 0 -57 -3 -60 -7z"/>
<path d="M4060 2694 l0 -44 -40 0 c-39 0 -40 -1 -40 -35 0 -33 -2 -35 -35 -35
-34 0 -35 -1 -35 -39 0 -39 -1 -40 -37 -43 -35 -3 -38 -6 -43 -38 -5 -32 -8
-35 -42 -38 -36 -3 -38 -5 -38 -38 0 -33 -1 -34 -40 -34 l-40 0 0 -40 0 -40
-40 0 -40 0 0 -40 0 -40 -40 0 -40 0 0 -40 0 -40 -59 0 c-80 0 -91 -5 -91 -46
0 -31 -3 -34 -30 -34 -31 0 -50 -22 -50 -59 0 -17 -6 -21 -34 -21 -36 0 -46
-12 -46 -56 0 -21 -5 -24 -35 -24 -33 0 -35 -2 -35 -34 0 -33 -2 -35 -37 -38
-36 -3 -38 -5 -41 -40 -3 -33 -6 -37 -35 -40 -27 -3 -33 -8 -40 -41 -8 -33
-13 -38 -36 -37 -48 4 -51 1 -51 -40 l0 -40 -40 0 c-39 0 -40 -1 -40 -35 0
-34 -1 -35 -40 -35 l-40 0 0 -45 0 -45 -40 0 c-39 0 -40 -1 -38 -32 3 -31 1
-33 -37 -38 -23 -3 -40 -10 -39 -17 1 -7 2 -24 3 -38 1 -22 5 -25 41 -25 l40
0 0 -40 c0 -39 1 -40 35 -40 34 0 35 -1 35 -40 l0 -40 40 0 c39 0 40 -1 40
-35 0 -34 1 -35 40 -35 l40 0 0 -40 0 -40 40 0 40 0 0 40 c0 39 1 40 35 40 33
0 35 2 35 35 0 34 1 35 40 35 40 0 40 0 40 39 0 39 1 40 38 43 35 3 37 5 40
41 3 36 4 37 43 37 39 0 39 0 39 40 0 39 1 40 35 40 21 0 35 5 36 13 1 6 2 23
2 37 2 21 7 25 40 28 35 3 37 5 37 36 0 37 13 52 50 58 19 2 26 10 30 33 4 27
9 30 40 30 33 0 35 2 40 40 5 37 8 40 40 45 32 5 35 8 38 41 3 32 5 35 31 31
32 -4 48 11 53 53 3 25 7 29 33 30 30 0 30 1 39 72 l9 72 36 3 c34 3 36 5 39
41 3 35 5 37 38 37 33 0 34 1 34 40 l0 40 40 0 40 0 0 40 0 40 40 0 40 0 0 40
0 40 40 0 c39 0 40 1 40 35 0 33 2 35 34 35 34 0 35 1 38 43 3 41 4 42 41 45
35 3 37 5 37 38 0 29 3 34 24 34 44 0 56 10 56 46 0 28 4 34 23 34 32 1 57 23
57 52 0 18 7 26 33 33 27 8 33 16 35 43 l3 33 -270 -1 -271 -1 0 -45z"/>
</g>
</svg>
